<svg xmlns="http://www.w3.org/2000/svg" width="16" height="15" viewBox="0 0 16 15">
    <defs>
        <linearGradient id="r237f727ka" x1="0%" x2="89.708%" y1="0%" y2="83.941%">
            <stop offset="0%" stop-color="#FFE400"/>
            <stop offset="100%" stop-color="#FFC500"/>
        </linearGradient>
    </defs>
    <g fill="none" fill-rule="evenodd">
        <g fill="url(#r237f727ka)" transform="translate(-600 -198)">
            <g>
                <g>
                    <g>
                        <path d="M73.535 14.745l-3.032 1.593c-.488.257-1.093.07-1.35-.42-.102-.194-.138-.417-.1-.634l.578-3.375c.056-.325-.052-.656-.287-.885l-2.453-2.39c-.395-.386-.403-1.02-.018-1.415.154-.157.355-.26.573-.292l3.389-.492c.325-.047.607-.252.753-.547l1.515-3.071c.245-.495.844-.699 1.34-.454.197.097.356.257.454.454l1.515 3.071c.146.295.428.5.753.547l3.39.492c.546.08.925.587.845 1.134-.031.218-.134.419-.291.572l-2.453 2.39c-.235.23-.343.561-.287.886l.579 3.375c.093.544-.273 1.061-.817 1.155-.217.037-.44.002-.634-.1l-3.032-1.594c-.291-.154-.639-.154-.93 0z" transform="translate(161 191) translate(287 5) translate(86)"/>
                    </g>
                </g>
            </g>
        </g>
    </g>
</svg>
